<svg width="16" height="16" viewBox="0 0 16 16" fill="none" xmlns="http://www.w3.org/2000/svg">
<path d="M15 4.43355C15 3.79515 14.48 3.27515 13.8416 3.27515H2.1584C1.52 3.27515 1 3.79515 1 4.43355V5.08315H15V4.43355ZM1.0016 7.03035V11.5727C1.0016 12.2127 1.52 12.7327 2.16 12.7327H13.84C14.48 12.7327 15 12.2127 15 11.5727V7.03035H1.0016ZM5.2992 11.0799C5.2992 11.1279 5.2592 11.1663 5.2128 11.1663H2.72C2.6736 11.1663 2.6336 11.1279 2.6336 11.0799V10.2687C2.6336 10.2223 2.6736 10.1823 2.72 10.1823H5.2128C5.2592 10.1823 5.2992 10.2223 5.2992 10.2687V11.0799Z" fill="#DBDDE0"/>
</svg>
