<svg width="16" height="16" viewBox="0 0 16 16" fill="none" xmlns="http://www.w3.org/2000/svg">
<g clip-path="url(#clip0_34_921)">
<path d="M5.21126 4.46246C5.31846 4.68166 5.43366 4.87366 5.47846 5.10246C5.60326 5.73766 5.88966 6.30886 6.31846 6.78086C6.59046 7.08006 6.57446 7.38726 6.48166 7.69606C6.40166 7.96326 6.42566 8.15846 6.60326 8.36326C6.84006 8.63846 7.07686 8.91206 7.40486 9.08646C7.78406 9.28966 8.31526 9.25446 8.74406 8.92006C9.09446 8.64646 9.35686 8.29606 9.60006 7.92806C9.64326 7.86406 9.62566 7.80806 9.61286 7.74726C9.59686 7.67206 9.58246 7.59686 9.56646 7.52326C9.50086 7.22086 9.59046 6.98086 9.79686 6.74406C10.2097 6.26886 10.4849 5.71526 10.6129 5.09606C10.6593 4.87206 10.7777 4.68646 10.9025 4.48806C10.8993 4.56486 10.9025 4.64326 10.8913 4.72006C10.7729 5.51046 10.8625 6.29126 11.0033 7.06566C11.0625 7.38406 11.1665 7.69766 11.2945 8.00006C11.3697 8.17606 11.5489 8.17286 11.6865 8.22886C12.1841 8.42726 12.6673 8.65126 13.1249 8.93286C13.5393 9.18726 13.7489 9.57446 13.8961 10.0113C14.1265 10.6929 14.3281 11.3825 14.4657 12.0913C14.6161 12.8689 14.6753 13.6497 14.6305 14.4401C14.6097 14.7857 14.3921 14.9921 14.1025 15.1009C13.4161 15.3585 12.7089 15.5585 11.9889 15.7057C11.5649 15.7921 11.1393 15.8577 10.7169 15.9393C10.3969 16.0017 10.0833 15.9937 9.76486 15.9953C8.92646 16.0017 8.08646 15.9841 7.24806 16.0017C6.44166 16.0177 5.64966 15.9329 4.85606 15.7841C4.03846 15.6321 3.23206 15.4497 2.44486 15.1889C2.22246 15.1153 2.00326 15.0321 1.78726 14.9409C1.45286 14.8001 1.40006 14.4993 1.37606 14.1985C1.33926 13.7297 1.42406 13.2657 1.47366 12.8033C1.54086 12.1809 1.64806 11.5633 1.80166 10.9553C1.94566 10.3841 2.12006 9.82086 2.43366 9.32006C2.68486 8.91846 3.09126 8.69766 3.52806 8.53766C3.89126 8.40646 4.25606 8.28006 4.61926 8.14726C4.70246 8.11686 4.76166 8.06406 4.80006 7.96806C5.01766 7.40966 5.14246 6.83526 5.19686 6.23686C5.24486 5.71846 5.26726 5.20486 5.19046 4.68806C5.18246 4.62246 5.16806 4.55206 5.21126 4.46246ZM7.56166 13.7137C7.56166 13.8609 7.56806 13.9825 7.56006 14.1041C7.55206 14.2257 7.59046 14.2785 7.72006 14.2721C7.91206 14.2641 8.10406 14.2641 8.29606 14.2721C8.42726 14.2785 8.46086 14.2209 8.45766 14.1025C8.45126 13.8721 8.46246 13.6417 8.45286 13.4113C8.44806 13.2737 8.48806 13.2145 8.63686 13.2209C8.86726 13.2305 9.09766 13.2177 9.32806 13.2257C9.45446 13.2305 9.50086 13.1793 9.49926 13.0577C9.49606 12.8657 9.49126 12.6737 9.50086 12.4833C9.50886 12.3473 9.44326 12.3217 9.32806 12.3233C9.11046 12.3281 8.89286 12.3249 8.67526 12.3281C8.51686 12.3313 8.44166 12.2705 8.45126 12.0993C8.46406 11.8769 8.45286 11.6513 8.45766 11.4273C8.45926 11.3217 8.42406 11.2785 8.31206 11.2817C8.11366 11.2881 7.91526 11.2865 7.71686 11.2817C7.60486 11.2801 7.55526 11.3169 7.55846 11.4369C7.56486 11.6673 7.55206 11.8977 7.56326 12.1281C7.56966 12.2753 7.50246 12.3217 7.37126 12.3217C7.20486 12.3217 7.03846 12.3233 6.87206 12.3249C6.51526 12.3297 6.51526 12.3313 6.51686 12.6945C6.51846 13.2241 6.51846 13.2209 7.04486 13.2257C7.20966 13.2273 7.41926 13.1537 7.52486 13.2609C7.63366 13.3649 7.54406 13.5761 7.56166 13.7137ZM5.88486 3.73606C5.66726 3.73606 5.44966 3.73126 5.23206 3.73766C5.08646 3.74246 5.02726 3.68806 5.02246 3.53766C5.00966 3.16646 4.98406 2.79206 5.03526 2.42566C5.15846 1.55366 5.61926 0.577661 6.76806 0.227261C7.28486 0.0688614 7.80486 -0.0495386 8.33766 0.0192614C9.33926 0.147261 10.2209 0.520061 10.7105 1.47526C11.0257 2.08806 11.0241 2.76806 10.9969 3.44166C10.9953 3.50246 11.0049 3.56486 10.8897 3.54246C10.8001 3.52486 10.7857 3.64166 10.7713 3.70886C10.7489 3.81446 10.7185 3.83046 10.6177 3.77766C10.1809 3.54886 9.89446 3.19206 9.71846 2.74246C9.67046 2.61926 9.64966 2.59686 9.52646 2.68326C8.72806 3.24006 7.84006 3.55206 6.87526 3.68006C6.54566 3.72486 6.21606 3.73926 5.88486 3.73606Z" fill="#DBDDE0"/>
</g>
<defs>
<clipPath id="clip0_34_921">
<rect width="16" height="16" fill="white"/>
</clipPath>
</defs>
</svg>
