<svg width="16" height="16" viewBox="0 0 16 16" fill="none" xmlns="http://www.w3.org/2000/svg">
<g clip-path="url(#clip0_34_911)">
<path d="M15.6465 6.79995C15.0801 6.35355 14.0225 6.73435 13.1985 7.64955C12.4289 7.43515 11.7457 7.48795 11.1633 7.81595C10.0481 8.44475 9.62566 9.89115 9.46886 10.9903C9.44486 11.1599 9.42246 11.3327 9.39846 11.5055C9.14886 13.4079 8.91206 15.2063 6.65606 15.2063C6.61926 15.2063 6.58246 15.2063 6.54406 15.2047C5.90406 15.1887 5.44326 14.9903 5.13606 14.5967C4.56966 13.8703 4.66726 12.6831 4.73926 12.1903C4.96326 12.0895 5.12166 11.8687 5.12966 11.6079L5.16326 10.6335L6.35846 10.2783C6.50726 10.2335 6.62246 10.1391 6.70566 10.0223C6.92006 10.0703 7.18726 10.0591 7.37606 9.94075C7.70726 9.73435 8.19046 9.33755 8.79206 8.58715C9.44966 7.76635 9.61126 7.10555 9.62726 6.67675C9.63526 6.37115 9.42246 6.06075 9.26406 5.97435C9.10566 5.88795 9.07686 6.04955 9.10726 6.35355C9.15206 6.81115 9.08006 7.50715 8.48966 8.26395C8.47846 8.27675 8.46886 8.28635 8.45926 8.29915L8.46406 8.26555C8.60486 8.04795 8.72646 7.81915 8.81926 7.57435C9.77926 5.03195 7.70406 2.06555 7.61446 1.94075C7.59526 1.91355 7.56966 1.89595 7.54406 1.87515C7.60326 1.73915 7.58886 1.61595 7.48966 1.55195C7.33446 1.45115 7.09126 1.14875 6.95046 0.876747L6.70086 0.399947C6.56166 0.129547 6.26726 0.0815474 6.04646 0.292747L5.42726 0.894347C5.20486 1.10555 5.24806 1.39195 5.51846 1.53435L5.95526 1.75835C6.22566 1.90075 6.52166 2.15675 6.61766 2.33115C6.68966 2.46075 6.85606 2.47995 7.02726 2.39195C7.20326 2.64795 8.91206 5.24155 8.12806 7.31675C8.09606 7.40155 8.04646 7.47995 8.00486 7.56155L8.00006 7.56315C7.95206 7.55195 7.90566 7.53435 7.85606 7.53435C7.73286 7.53435 7.61766 7.57115 7.52166 7.63195L7.66726 7.77115C7.57926 7.87835 7.52006 8.00955 7.52006 8.15835C7.52006 8.19515 7.52806 8.23035 7.53446 8.26555C7.25926 8.56635 6.91526 8.83515 6.49926 9.06395C6.34566 8.97755 6.16006 8.95035 5.97926 9.00475L4.52326 9.43675L2.96486 8.94395C2.78726 8.88795 2.60166 8.91195 2.44966 8.99515C1.70726 8.55515 1.20166 7.99355 0.944056 7.31675C0.123256 5.14235 2.04166 2.39675 2.06086 2.36955C2.06246 2.36475 2.06246 2.35995 2.06726 2.35515C2.06726 2.35515 2.11206 2.39835 2.16806 2.44795C2.22406 2.50075 2.34566 2.40155 2.44166 2.22715C2.53606 2.05115 2.83526 1.79515 3.10566 1.65435L3.54086 1.42875C3.81286 1.28795 3.85446 1.00155 3.63366 0.788747L3.01286 0.188747C2.79206 -0.0240526 2.50086 0.0239474 2.35846 0.295947L2.11046 0.772747C1.96806 1.04475 1.72646 1.34555 1.57126 1.44795C1.41286 1.54715 1.34406 1.68315 1.41286 1.74715L1.53926 1.86555C1.50886 1.88635 1.48166 1.90875 1.45766 1.94075C1.36806 2.06555 -0.707144 5.03195 0.252856 7.57435C0.576056 8.42555 1.19686 9.11835 2.10566 9.64635C2.12966 9.90075 2.30406 10.1279 2.56326 10.2111L3.83526 10.6127L3.80166 11.5615C3.79686 11.7583 3.87846 11.9375 4.00966 12.0655C3.92166 12.6527 3.80486 14.0895 4.55206 15.0479C4.99846 15.6207 5.66246 15.9215 6.52646 15.9423C6.57286 15.9455 6.61766 15.9455 6.66246 15.9455C9.56006 15.9455 9.87686 13.5407 10.1313 11.6031C10.1537 11.4335 10.1761 11.2639 10.2001 11.0959C10.3889 9.77275 10.8593 8.83675 11.5265 8.46075C11.8609 8.27035 12.2625 8.21755 12.7201 8.29755C12.1457 9.24635 12.0737 10.2367 12.5969 10.6527C13.2033 11.1327 14.3777 10.6591 15.2193 9.59515C16.0609 8.53115 16.2513 7.27995 15.6465 6.79995ZM8.35366 8.42555C8.30406 8.48475 8.25446 8.54875 8.20646 8.60315C8.25446 8.54235 8.30246 8.48155 8.34726 8.41915L8.35366 8.42555ZM14.1377 8.71515C13.8225 9.11515 13.3825 9.29275 13.1553 9.11195C12.9889 8.98075 12.9841 8.69435 13.1153 8.39355C13.2353 8.43195 13.3569 8.47355 13.4817 8.52635C13.6721 8.60635 13.8865 8.51995 13.9665 8.33115C14.0465 8.14395 13.9585 7.92635 13.7697 7.84635C13.7137 7.82235 13.6609 7.80475 13.6049 7.78555C13.8625 7.59675 14.1329 7.53915 14.2945 7.66875C14.5233 7.84955 14.4513 8.31835 14.1377 8.71515Z" fill="#DBDDE0"/>
</g>
<defs>
<clipPath id="clip0_34_911">
<rect width="16" height="16" fill="white"/>
</clipPath>
</defs>
</svg>
